<svg width="659" height="479" viewBox="0 0 659 479" fill="none" xmlns="http://www.w3.org/2000/svg">
<path d="M131.301 479C203.817 479 262.603 474.336 262.603 468.582C262.603 462.828 203.817 458.164 131.301 458.164C58.7856 458.164 0 462.828 0 468.582C0 474.336 58.7856 479 131.301 479Z" fill="#E6E6E6"/>
<path d="M100.364 106.282C123.215 96.1281 151.675 102.561 179.47 107.026C179.729 101.619 182.864 95.0386 179.58 91.2664C175.59 86.6834 175.957 81.8681 178.358 77.025C184.498 64.6405 175.701 51.4627 166.82 40.5055C164.818 38.0413 162.288 36.1052 159.436 34.8544C156.583 33.6036 153.488 33.0734 150.403 33.3067L133.951 34.5344C129.947 34.8332 126.127 36.4021 123 39.0313C119.873 41.6605 117.59 45.2246 116.455 49.2467C112.527 54.8283 110.424 60.3945 111.748 65.9317C105.864 70.1327 104.875 75.2037 107.519 80.9203C109.761 84.5197 109.738 88.0233 107.417 91.4301C104.37 95.7734 102.036 100.616 100.511 105.76L100.364 106.282Z" fill="#2F2E41"/>
<path d="M643.384 414.088H177.665C173.523 414.088 169.551 412.369 166.623 409.31C163.694 406.25 162.049 402.101 162.049 397.774C330.872 377.276 496.523 377.276 659 397.774C659 402.101 657.355 406.25 654.426 409.31C651.498 412.369 647.526 414.088 643.384 414.088Z" fill="#2F2E41"/>
<path d="M659 398.733L162.049 397.774L219.644 296.531L219.92 296.051V72.9236C219.919 70.2153 220.43 67.5335 221.422 65.0313C222.414 62.5291 223.868 60.2556 225.701 58.3406C227.534 56.4255 229.71 54.9065 232.105 53.8701C234.5 52.8338 237.067 52.3006 239.66 52.3008H578.634C581.226 52.3006 583.793 52.8338 586.188 53.8701C588.583 54.9065 590.759 56.4255 592.592 58.3406C594.426 60.2556 595.88 62.5291 596.872 65.0313C597.864 67.5335 598.374 70.2153 598.374 72.9236V297.587L659 398.733Z" fill="#3F3D56"/>
<path d="M239.21 66.6955C237.505 66.6975 235.871 67.4059 234.665 68.6652C233.46 69.9246 232.782 71.632 232.78 73.413V276.858C232.782 278.639 233.46 280.347 234.665 281.606C235.871 282.865 237.505 283.574 239.21 283.576H581.839C583.544 283.574 585.178 282.865 586.384 281.606C587.589 280.347 588.267 278.639 588.269 276.858V73.413C588.267 71.6321 587.589 69.9247 586.384 68.6653C585.178 67.406 583.544 66.6976 581.839 66.6955H239.21Z" fill="white"/>
<path d="M240.645 310.446C240.119 310.447 239.603 310.605 239.16 310.902C238.716 311.199 238.363 311.622 238.142 312.122L220.395 352.427C220.202 352.865 220.117 353.348 220.149 353.829C220.181 354.311 220.329 354.777 220.578 355.183C220.827 355.59 221.17 355.924 221.576 356.156C221.981 356.388 222.436 356.509 222.898 356.509H596.103C596.573 356.509 597.035 356.384 597.445 356.145C597.856 355.906 598.201 355.561 598.447 355.143C598.694 354.726 598.835 354.25 598.856 353.759C598.877 353.269 598.778 352.781 598.568 352.342L579.277 312.037C579.05 311.558 578.698 311.155 578.263 310.874C577.827 310.593 577.325 310.444 576.813 310.446H240.645Z" fill="#2F2E41"/>
<path d="M409.147 63.3367C411.43 63.3367 413.28 61.4033 413.28 59.0183C413.28 56.6333 411.43 54.6999 409.147 54.6999C406.864 54.6999 405.013 56.6333 405.013 59.0183C405.013 61.4033 406.864 63.3367 409.147 63.3367Z" fill="white"/>
<path d="M372.464 364.186C371.858 364.187 371.269 364.396 370.788 364.781C370.308 365.166 369.961 365.705 369.803 366.316L365.352 383.59C365.241 384.017 365.227 384.464 365.309 384.898C365.391 385.331 365.568 385.739 365.825 386.09C366.082 386.441 366.413 386.725 366.793 386.92C367.172 387.116 367.589 387.218 368.012 387.218H452.672C453.111 387.218 453.544 387.108 453.934 386.898C454.325 386.687 454.661 386.382 454.916 386.008C455.171 385.635 455.336 385.202 455.399 384.748C455.461 384.294 455.419 383.831 455.275 383.397L449.552 366.123C449.364 365.558 449.012 365.067 448.546 364.72C448.079 364.373 447.52 364.186 446.948 364.186H372.464Z" fill="#2F2E41"/>
<path d="M598.374 292.693V296.531H219.644L219.929 296.051V292.693H598.374Z" fill="#2F2E41"/>
<path d="M587.81 134.351C623.322 134.351 652.111 104.275 652.111 67.1753C652.111 30.0754 623.322 0 587.81 0C552.298 0 523.51 30.0754 523.51 67.1753C523.51 104.275 552.298 134.351 587.81 134.351Z" fill="#6709A8"/>
<path d="M614.449 96.4446H561.171C560.197 96.4436 559.263 96.0388 558.574 95.3192C557.885 94.5995 557.498 93.6237 557.497 92.606V59.0183C557.498 58.0006 557.886 57.0248 558.574 56.3052C559.263 55.5856 560.197 55.1808 561.171 55.1797H614.449C615.423 55.1808 616.357 55.5856 617.046 56.3052C617.735 57.0248 618.122 58.0006 618.123 59.0183V92.6059C618.122 93.6237 617.735 94.5995 617.046 95.3192C616.357 96.0388 615.423 96.4436 614.449 96.4446ZM561.171 59.0183V92.606H614.452L614.449 59.0183L561.171 59.0183Z" fill="white"/>
<path d="M604.345 59.0183H571.276V43.664C571.276 32.5427 578.23 24.471 587.81 24.471C597.391 24.471 604.345 32.5427 604.345 43.664L604.345 59.0183ZM574.95 55.1797H600.67V43.664C600.67 34.6237 595.382 28.3096 587.81 28.3096C580.238 28.3096 574.95 34.6237 574.95 43.664L574.95 55.1797Z" fill="white"/>
<path d="M587.81 78.6911C589.84 78.6911 591.485 76.9725 591.485 74.8525C591.485 72.7325 589.84 71.0139 587.81 71.0139C585.781 71.0139 584.136 72.7325 584.136 74.8525C584.136 76.9725 585.781 78.6911 587.81 78.6911Z" fill="white"/>
<path d="M542.923 214.569H278.126C276.826 214.568 275.58 214.027 274.661 213.067C273.741 212.107 273.224 210.805 273.223 209.446V140.825C273.224 139.467 273.741 138.165 274.661 137.204C275.58 136.244 276.826 135.704 278.126 135.702H542.923C544.223 135.704 545.469 136.244 546.389 137.204C547.308 138.165 547.825 139.467 547.827 140.825V209.446C547.825 210.805 547.308 212.107 546.389 213.067C545.469 214.027 544.223 214.568 542.923 214.569ZM278.126 137.751C277.346 137.752 276.598 138.076 276.047 138.652C275.495 139.229 275.185 140.01 275.184 140.825V209.446C275.185 210.261 275.495 211.043 276.047 211.619C276.598 212.195 277.346 212.519 278.126 212.52H542.923C543.703 212.519 544.451 212.195 545.002 211.619C545.554 211.043 545.864 210.261 545.865 209.446V140.825C545.864 140.01 545.554 139.229 545.002 138.652C544.451 138.076 543.703 137.752 542.923 137.751L278.126 137.751Z" fill="#E6E6E6"/>
<path d="M319.27 193.37C330.302 193.37 339.245 184.028 339.245 172.503C339.245 160.978 330.302 151.635 319.27 151.635C308.238 151.635 299.295 160.978 299.295 172.503C299.295 184.028 308.238 193.37 319.27 193.37Z" fill="#E6E6E6"/>
<path d="M365.403 158.591C364.965 158.59 364.531 158.679 364.127 158.854C363.722 159.028 363.355 159.284 363.045 159.607C362.735 159.93 362.49 160.314 362.322 160.736C362.155 161.159 362.068 161.611 362.068 162.069C362.068 162.526 362.155 162.979 362.322 163.401C362.49 163.823 362.735 164.207 363.045 164.53C363.355 164.853 363.722 165.109 364.127 165.284C364.531 165.458 364.965 165.547 365.403 165.547H522.347C523.23 165.547 524.077 165.18 524.701 164.528C525.326 163.876 525.677 162.991 525.677 162.069C525.677 161.146 525.326 160.262 524.701 159.609C524.077 158.957 523.23 158.591 522.347 158.591H365.403Z" fill="#E6E6E6"/>
<path d="M365.403 179.459C364.52 179.459 363.673 179.825 363.049 180.477C362.424 181.129 362.073 182.014 362.073 182.937C362.073 183.859 362.424 184.744 363.049 185.396C363.673 186.048 364.52 186.415 365.403 186.415H432.936C433.819 186.415 434.666 186.048 435.29 185.396C435.915 184.744 436.266 183.859 436.266 182.937C436.266 182.014 435.915 181.129 435.29 180.477C434.666 179.825 433.819 179.459 432.936 179.459H365.403Z" fill="#E6E6E6"/>
<path d="M218.992 180.865L170.043 208.053L169.423 185.397C185.4 182.61 200.6 177.759 214.655 169.861L219.775 156.647C220.332 155.208 221.239 153.944 222.406 152.981C223.572 152.018 224.958 151.388 226.428 151.153C227.898 150.919 229.401 151.088 230.789 151.643C232.178 152.199 233.404 153.122 234.348 154.323C235.729 156.079 236.419 158.317 236.279 160.585C236.138 162.853 235.178 164.981 233.593 166.537L218.992 180.865Z" fill="#FFB8B8"/>
<path d="M99.3887 337.836C99.0316 336.468 98.9558 335.036 99.1662 333.635C99.3767 332.234 99.8686 330.895 100.61 329.707L111.363 312.467C113.906 308.389 117.808 305.444 122.313 304.202C126.817 302.961 131.603 303.512 135.741 305.748C131.221 313.784 131.851 320.834 137.301 326.961C128.841 331.275 121.022 336.844 114.086 343.495C112.82 344.397 111.365 344.969 109.844 345.165C108.323 345.361 106.78 345.174 105.342 344.621C103.904 344.067 102.613 343.162 101.578 341.982C100.542 340.802 99.7918 339.38 99.3887 337.836Z" fill="#2F2E41"/>
<path d="M221.222 315.294C219.595 318.127 217.298 320.476 214.552 322.115C211.806 323.753 208.702 324.627 205.54 324.652L134.105 325.218L131.007 306.445L162.607 296.736L135.964 275.374L165.086 239.772L217.98 291.275C221.072 294.286 223.081 298.314 223.671 302.685C224.261 307.057 223.396 311.508 221.222 315.294Z" fill="#2F2E41"/>
<path d="M122.952 443.677H106.222C91.2014 336.112 75.9117 228.246 121.093 187.986L174.38 197.048L167.564 244.303L137.823 279.905L122.952 443.677Z" fill="#2F2E41"/>
<path d="M137.658 468.044C136.348 468.417 134.978 468.496 133.637 468.276C132.296 468.057 131.014 467.543 129.877 466.769L111.712 464.218C107.809 461.561 104.989 457.484 103.801 452.778C102.612 448.073 103.139 443.073 105.279 438.75C112.972 443.471 119.72 442.812 125.584 437.119C129.727 445.859 136.554 445.326 143.074 452.689C143.937 454.012 144.486 455.531 144.673 457.12C144.861 458.709 144.682 460.322 144.152 461.824C143.622 463.326 142.756 464.675 141.627 465.756C140.497 466.838 139.136 467.622 137.658 468.044Z" fill="#2F2E41"/>
<path d="M162.607 116.134L131.626 108.366C136.772 97.3626 137.196 85.1193 134.725 72.1159L155.791 71.4685C156.452 87.6387 158.449 102.746 162.607 116.134Z" fill="#FFB8B8"/>
<path d="M171.122 216.539C148.569 232.594 132.634 217.088 120.473 193.165C122.163 178.525 119.427 161.007 114.36 141.971C112.106 133.575 112.948 124.602 116.718 116.822C120.488 109.043 126.913 103.023 134.725 99.9506L161.368 111.602C183.992 130.868 188.444 151.736 179.957 173.745L171.122 216.539Z" fill="#6D0AB3"/>
<path d="M106.222 132.317L81.4375 145.91L125.43 173.098L131.552 188.872C131.96 189.925 132.159 191.054 132.137 192.189C132.114 193.325 131.87 194.444 131.42 195.479C130.97 196.513 130.323 197.44 129.518 198.205C128.714 198.969 127.769 199.554 126.741 199.925C125.572 200.346 124.326 200.478 123.1 200.312C121.874 200.146 120.702 199.686 119.674 198.967C118.647 198.249 117.793 197.292 117.179 196.171C116.565 195.05 116.208 193.796 116.135 192.507L115.516 181.513L59.6021 162.236C57.7182 161.587 56.0005 160.498 54.5791 159.052C53.1576 157.606 52.0697 155.842 51.3977 153.892C50.4183 151.049 50.3684 147.948 51.256 145.073C52.1435 142.197 53.9184 139.711 56.3029 138.002L101.265 105.776L106.222 132.317Z" fill="#FFB8B8"/>
<path d="M131.007 134.906C120.67 130.173 111.271 135.314 99.4064 139.437L97.5476 105.129C109.328 98.5695 120.56 96.8009 131.007 101.893L131.007 134.906Z" fill="#6709A8"/>
<path d="M143.372 88.4625C154.296 88.4625 163.152 79.2107 163.152 67.798C163.152 56.3854 154.296 47.1336 143.372 47.1336C132.448 47.1336 123.592 56.3854 123.592 67.798C123.592 79.2107 132.448 88.4625 143.372 88.4625Z" fill="#FFB8B8"/>
<path d="M167.035 65.1907C147.451 67.1946 132.529 63.8485 122.991 54.3211V46.6484H165.373L167.035 65.1907Z" fill="#2F2E41"/>
</svg>
