<svg width="760" height="434" viewBox="0 0 760 434" fill="none" xmlns="http://www.w3.org/2000/svg">
<g clip-path="url(#clip0)">
<path d="M581.874 429.092C572.144 421.239 566.234 408.833 567.784 396.756C569.334 384.679 578.933 373.577 591.386 371.012C603.838 368.448 618.033 375.547 621.815 387.166C623.897 364.765 626.295 341.426 638.764 322.35C650.054 305.077 669.609 292.718 690.801 290.507C711.994 288.296 734.307 296.647 747.524 312.624C760.741 328.601 763.977 351.828 754.72 370.171C747.901 383.684 735.338 393.74 722.174 401.921C679.639 428.135 628.623 438.796 578.514 431.94L581.874 429.092Z" fill="#F2F2F2"/>
<path d="M726.567 297.11C709.08 310.714 693.038 325.929 678.673 342.536C656.191 368.436 637.998 397.475 624.728 428.64C623.757 430.914 627.622 431.904 628.583 429.655C650.294 379.005 684.954 334.362 729.393 299.809C731.389 298.257 728.546 295.57 726.567 297.11Z" fill="white"/>
<path d="M244.656 426.958C258.021 416.172 266.138 399.133 264.009 382.545C261.88 365.957 248.695 350.708 231.592 347.186C214.488 343.663 194.992 353.414 189.797 369.372C186.938 338.605 183.643 306.549 166.518 280.348C151.011 256.624 124.153 239.648 95.0447 236.611C65.9366 233.574 35.2895 245.045 17.1359 266.989C-1.01779 288.934 -5.46263 320.836 7.25172 346.03C16.6179 364.59 33.8738 378.402 51.9537 389.639C109.635 425.489 181.188 440.441 249.272 430.87" fill="#F2F2F2"/>
<path d="M45.9204 245.68C69.9382 264.366 91.9719 285.264 111.703 308.073C131.437 330.859 148.811 355.419 163.581 381.409C171.836 395.988 179.252 410.986 185.796 426.338C187.13 429.461 181.821 430.82 180.502 427.732C168.911 400.668 154.572 374.753 137.689 350.361C120.888 326.057 101.659 303.367 80.2709 282.61C68.1738 270.875 55.4103 259.785 42.0383 249.388C39.2974 247.257 43.2021 243.566 45.9204 245.68L45.9204 245.68Z" fill="white"/>
<path d="M545.54 433.05H226.69V120.57C226.69 54.0873 283.316 0 352.919 0H419.311C488.914 0 545.54 54.0873 545.54 120.57V433.05Z" fill="#F2F2F2"/>
<path d="M479.149 433.05H226.69V120.57C226.62 95.0952 235.065 70.2645 250.796 49.6928C251.376 48.9379 251.955 48.1927 252.551 47.4557C260.16 37.9236 269.215 29.5289 279.417 22.5486C279.993 22.1481 280.572 21.7545 281.159 21.361C289.695 15.7183 298.93 11.1056 308.652 7.6277C309.229 7.41869 309.817 7.20927 310.405 7.00841C319.197 4.01133 328.312 1.95835 337.58 0.887364C338.154 0.812394 338.744 0.753729 339.334 0.695063C348.366 -0.227334 357.475 -0.227334 366.507 0.695063C367.095 0.753729 367.685 0.812387 368.266 0.888166C377.532 1.95922 386.644 4.01195 395.434 7.00845C396.022 7.20931 396.61 7.41871 397.189 7.62813C406.791 11.0621 415.917 15.606 424.363 21.1585C424.949 21.5435 425.537 21.9371 426.115 22.3306C431.834 26.2295 437.205 30.5732 442.174 35.3171C446.16 39.1223 449.873 43.1784 453.29 47.4582C453.885 48.1928 454.463 48.9379 455.042 49.6917C470.773 70.2635 479.219 95.0947 479.149 120.57V433.05Z" fill="#CCCCCC"/>
<path d="M458.621 293.289C466.34 293.289 472.598 287.312 472.598 279.939C472.598 272.566 466.34 266.589 458.621 266.589C450.901 266.589 444.644 272.566 444.644 279.939C444.644 287.312 450.901 293.289 458.621 293.289Z" fill="#6709A8"/>
<path d="M519.42 423.691H508.71L503.614 384.234L519.422 384.235L519.42 423.691Z" fill="#FFB8B8"/>
<path d="M501.06 420.768H521.714V433.189H488.055C488.055 431.558 488.392 429.943 489.045 428.436C489.699 426.929 490.657 425.559 491.864 424.406C493.072 423.252 494.505 422.337 496.083 421.713C497.661 421.089 499.352 420.768 501.06 420.768Z" fill="#2F2E41"/>
<path d="M572.707 423.691H561.997L556.902 384.234L572.709 384.235L572.707 423.691Z" fill="#FFB8B8"/>
<path d="M554.347 420.768H575.002V433.189H541.343C541.343 431.558 541.679 429.943 542.333 428.436C542.986 426.929 543.944 425.559 545.152 424.406C546.359 423.252 547.793 422.337 549.371 421.713C550.948 421.089 552.639 420.768 554.347 420.768Z" fill="#2F2E41"/>
<path d="M465.694 282.584C464.924 281.499 464.412 280.267 464.194 278.973C463.976 277.679 464.058 276.356 464.434 275.095C464.809 273.835 465.47 272.669 466.368 271.678C467.267 270.688 468.382 269.898 469.635 269.364L506.041 173.52L523.955 182.858L482.387 274.45C483.187 276.52 483.164 278.798 482.323 280.853C481.482 282.908 479.881 284.596 477.823 285.599C475.765 286.601 473.394 286.848 471.159 286.292C468.924 285.737 466.979 284.417 465.694 282.584Z" fill="#FFB8B8"/>
<path d="M567.236 300.593C566.046 299.941 565.02 299.048 564.23 297.977C563.441 296.905 562.907 295.681 562.666 294.391C562.425 293.101 562.483 291.776 562.836 290.51C563.189 289.244 563.828 288.067 564.709 287.062L553.431 185.676L573.818 186.565L578.505 286.292C580.174 287.817 581.199 289.874 581.387 292.073C581.574 294.272 580.91 296.461 579.521 298.223C578.132 299.986 576.114 301.201 573.85 301.638C571.586 302.075 569.233 301.703 567.236 300.593Z" fill="#FFB8B8"/>
<path d="M534.713 155.767C546.563 155.767 556.169 146.592 556.169 135.274C556.169 123.956 546.563 114.78 534.713 114.78C522.864 114.78 513.258 123.956 513.258 135.274C513.258 146.592 522.864 155.767 534.713 155.767Z" fill="#FFB8B8"/>
<path d="M567.099 277.535H502.415L502.493 277.054C502.609 276.335 514.021 204.93 505.604 181.569C504.759 179.274 504.834 176.761 505.813 174.514C506.791 172.268 508.606 170.446 510.906 169.401H510.906C522.937 163.99 546.03 157.326 565.521 173.497C568.39 175.916 570.629 178.939 572.064 182.327C573.498 185.715 574.087 189.375 573.785 193.019L567.099 277.535Z" fill="#6709A8"/>
<path d="M514.838 215.482L485.717 209.839L499.367 178.942C500.184 175.949 502.21 173.388 505.001 171.821C507.792 170.253 511.12 169.807 514.255 170.58C517.39 171.353 520.077 173.282 521.724 175.944C523.372 178.607 523.847 181.784 523.046 184.781L514.838 215.482Z" fill="#6709A8"/>
<path d="M552.136 225.96L550.385 187.627C549.058 180.421 553.376 173.609 560.018 172.496C566.662 171.386 573.15 176.384 574.483 183.643L581.064 219.462L552.136 225.96Z" fill="#6709A8"/>
<path d="M564.947 272.945C575.356 310.808 576.491 358.946 573.683 411.455L559.706 409.786L534.373 309.659L520.396 411.455L504.672 410.62C499.974 355.526 495.4 308.228 502.924 277.117L564.947 272.945Z" fill="#2F2E41"/>
<path d="M548.85 151.112C544.848 155.184 537.414 152.998 536.893 147.435C536.852 147.003 536.855 146.568 536.902 146.137C537.171 143.672 538.661 141.435 538.304 138.833C538.224 138.185 537.971 137.568 537.57 137.04C534.381 132.96 526.894 138.864 523.883 135.171C522.037 132.907 524.207 129.341 522.791 126.81C520.921 123.47 515.384 125.117 511.912 123.288C508.048 121.252 508.279 115.591 510.822 112.147C513.924 107.947 519.362 105.705 524.732 105.382C530.103 105.059 535.436 106.446 540.45 108.312C546.146 110.433 551.795 113.363 555.301 118.148C559.564 123.966 559.974 131.788 557.842 138.592C556.545 142.731 552.119 147.786 548.85 151.112Z" fill="#2F2E41"/>
<path d="M733.777 433.587H88.8305C88.5552 433.586 88.2914 433.481 88.097 433.295C87.9026 433.109 87.7934 432.856 87.7934 432.593C87.7934 432.33 87.9026 432.078 88.097 431.892C88.2914 431.706 88.5552 431.601 88.8305 431.6H733.777C734.052 431.601 734.316 431.706 734.511 431.892C734.705 432.078 734.814 432.33 734.814 432.593C734.814 432.856 734.705 433.109 734.511 433.295C734.316 433.481 734.052 433.586 733.777 433.587Z" fill="#3F3D56"/>
<path d="M409.701 342.518H296.138C294.642 342.526 293.205 341.967 292.14 340.963C291.076 339.96 290.471 338.594 290.46 337.165V95.0501C290.471 93.6216 291.076 92.2557 292.14 91.2522C293.205 90.2487 294.642 89.6895 296.138 89.6972H409.701C411.197 89.6895 412.635 90.2487 413.699 91.2522C414.763 92.2557 415.368 93.6216 415.379 95.0501V337.165C415.368 338.594 414.763 339.96 413.699 340.963C412.635 341.967 411.197 342.526 409.701 342.518Z" fill="white"/>
<path d="M415.379 168.038H290.46V169.707H415.379V168.038Z" fill="#CCCCCC"/>
<path d="M415.816 263.251H290.897V264.92H415.816V263.251Z" fill="#CCCCCC"/>
<path d="M331.517 89.6973H329.77V343.353H331.517V89.6973Z" fill="#CCCCCC"/>
<path d="M375.195 89.6973H373.448V343.353H375.195V89.6973Z" fill="#CCCCCC"/>
</g>
<defs>
<clipPath id="clip0">
<rect width="760" height="434" fill="white"/>
</clipPath>
</defs>
</svg>
