<svg width="324" height="83" viewBox="0 0 324 83" fill="none" xmlns="http://www.w3.org/2000/svg">
<path d="M41.4826 82.997C18.8383 83.2731 -0.143271 64.2989 0.000814953 41.3975C0.144901 18.6882 18.4868 0.0735791 41.1362 0.000233596C64.2912 -0.0756411 82.9061 18.3417 82.9997 41.3519C83.0905 64.7998 63.821 83.2673 41.4826 82.997Z" fill="#FE5740"/>
<path d="M12.3667 38.9855C11.9543 40.0837 12.2301 40.9466 12.2074 41.7993C12.1973 42.2447 12.2959 42.7963 11.6481 42.905C11.1598 42.9886 10.7423 42.857 10.4817 42.3585C9.47959 40.4405 8.76355 38.4162 8.99886 36.2426C9.22403 34.1879 10.5323 33.5301 12.42 34.5219C18.3435 37.6318 23.8824 41.3944 29.639 44.7876C30.4968 45.2912 35.9873 47.9557 36.734 48.3605C37.3674 48.704 37.6578 48.6236 40.9675 47.1308C47.6779 44.107 54.6035 41.5665 61.4381 38.8135C62.0453 38.568 62.6147 38.229 63.3333 37.8671C61.762 35.8276 60.2412 33.8312 58.6901 31.8625C58.4117 31.5083 58.0449 31.1642 57.6425 30.9795C55.1122 29.8231 52.5287 28.7755 50.0236 27.566C48.4346 26.7993 48.2042 27.5508 48.1056 28.8793C48.0524 29.6207 48.6876 30.8403 47.2933 30.9441C46.1648 31.0276 45.4183 30.1571 45.1375 29.1678C44.6972 27.6115 44.6997 25.9744 45.2514 24.4461C45.803 22.9203 47.5565 22.4572 49.5555 23.2518C53.2599 24.7219 56.9417 26.2452 60.6334 27.7432C64.7124 29.3954 68.7913 31.0503 72.8753 32.6925C73.9786 33.1378 74.7655 33.6187 74.5681 35.1217C74.2619 37.4293 74.2366 39.7725 74.1076 42.1029C74.0595 42.943 73.8216 43.654 73.0727 44.1475C72.7463 44.3626 72.3262 44.6156 72.2098 44.9445C70.603 49.4587 65.9775 49.3676 62.6374 51.2021C61.5848 51.7816 60.6612 51.1717 59.973 50.1368C58.0322 47.2219 56.8505 47.323 55.1324 50.4936C54.3429 51.9511 53.5509 53.4137 52.8475 54.9141C52.1921 56.3084 51.2381 57.3003 49.7883 57.8722C47.134 58.9172 44.5024 60.023 41.8708 61.1186C41.2255 61.3868 40.5803 61.5285 39.9477 61.1819C37.4199 59.8003 34.8794 58.4516 32.4022 56.9613C29.0874 54.9673 26.1421 52.6343 24.3708 49.2259C21.7519 44.1778 16.9872 41.8625 12.3667 38.9855Z" fill="#271640"/>
<path d="M53.1813 49.3727C53.5609 52.156 52.0428 53.6464 49.2392 54.7066C46.8885 55.5973 44.6592 56.8069 42.3591 57.8342C40.6284 58.6085 39.8642 58.1277 39.7428 56.2577C39.7301 56.0579 39.7377 55.8579 39.7352 55.6581C39.6415 49.8711 39.6466 49.8813 45.0489 47.6697C46.7038 46.9915 48.3333 46.2502 49.9755 45.5417C52.3642 44.5118 52.8018 44.818 52.9918 47.4293C53.0963 48.8666 53.0778 48.6136 53.1813 49.3727Z" fill="#39B5FD"/>
<path d="M60.9798 45.1747C60.9621 41.4703 61.5138 40.5721 64.9171 39.1904C66.7946 38.4288 68.7253 37.7911 70.6408 37.1207C71.6757 36.7588 72.159 37.2092 72.1489 38.2568C72.1337 39.5878 72.1564 40.9237 72.0654 42.2522C71.9237 44.3701 70.2156 45.1368 68.6443 45.9263C66.8832 46.8093 65.0664 47.5812 63.2597 48.3656C61.9059 48.9552 61.071 48.4339 60.9824 46.9739C60.9469 46.3767 60.9773 45.7745 60.9798 45.1747Z" fill="#FF0066"/>
<g filter="url(#filter0_d)">
<path d="M114.257 44.584H111.547C111.459 45.2285 111.308 45.8291 111.093 46.3857C110.878 46.9326 110.59 47.4062 110.229 47.8066C109.867 48.2168 109.423 48.5342 108.896 48.7588C108.378 48.9834 107.763 49.0957 107.05 49.0957C106.396 49.0957 105.824 48.9932 105.336 48.7881C104.848 48.5732 104.423 48.2803 104.062 47.9092C103.7 47.5479 103.402 47.1279 103.168 46.6494C102.934 46.1709 102.743 45.6582 102.597 45.1113C102.45 44.5742 102.343 44.0273 102.274 43.4707C102.216 42.9043 102.187 42.3574 102.187 41.8301V38.8271C102.187 38.2998 102.216 37.7578 102.274 37.2012C102.343 36.6348 102.45 36.083 102.597 35.5459C102.743 35.0088 102.934 34.501 103.168 34.0225C103.412 33.5439 103.715 33.124 104.076 32.7627C104.428 32.4014 104.848 32.1182 105.336 31.9131C105.834 31.6982 106.405 31.5908 107.05 31.5908C107.763 31.5908 108.378 31.7129 108.896 31.957C109.423 32.1914 109.867 32.5186 110.229 32.9385C110.59 33.3584 110.878 33.8467 111.093 34.4033C111.308 34.96 111.459 35.5605 111.547 36.2051H114.257C114.14 35.1895 113.896 34.2617 113.524 33.4219C113.163 32.582 112.68 31.8594 112.074 31.2539C111.469 30.6582 110.746 30.1992 109.906 29.877C109.066 29.5449 108.114 29.3789 107.05 29.3789C106.161 29.3789 105.36 29.5059 104.647 29.7598C103.935 30.0039 103.3 30.3457 102.743 30.7852C102.177 31.2246 101.688 31.7471 101.278 32.3525C100.878 32.9482 100.546 33.5977 100.282 34.3008C100.009 35.0039 99.8037 35.7412 99.667 36.5127C99.54 37.2842 99.4717 38.0654 99.4619 38.8564V41.8301C99.4717 42.6211 99.54 43.4023 99.667 44.1738C99.8037 44.9453 100.009 45.6826 100.282 46.3857C100.546 47.0889 100.878 47.7383 101.278 48.334C101.688 48.9297 102.177 49.4473 102.743 49.8867C103.3 50.3262 103.935 50.6729 104.647 50.9268C105.37 51.1709 106.171 51.293 107.05 51.293C108.075 51.293 109.003 51.1318 109.833 50.8096C110.673 50.4775 111.4 50.0137 112.016 49.418C112.621 48.832 113.114 48.1289 113.495 47.3086C113.876 46.4785 114.13 45.5703 114.257 44.584ZM132.333 41.5664V39.1348C132.323 38.373 132.255 37.6016 132.128 36.8203C132.011 36.0391 131.825 35.2871 131.571 34.5645C131.308 33.8418 130.976 33.168 130.575 32.543C130.185 31.9082 129.716 31.3564 129.169 30.8877C128.622 30.4189 127.992 30.0527 127.279 29.7891C126.566 29.5156 125.771 29.3789 124.892 29.3789C124.013 29.3789 123.217 29.5156 122.504 29.7891C121.801 30.0527 121.176 30.4189 120.629 30.8877C120.082 31.3662 119.608 31.9229 119.208 32.5576C118.817 33.1826 118.495 33.8564 118.241 34.5791C117.978 35.3018 117.782 36.0537 117.655 36.835C117.538 37.6064 117.475 38.373 117.465 39.1348V41.5664C117.475 42.3281 117.543 43.0947 117.67 43.8662C117.797 44.6377 117.992 45.3848 118.256 46.1074C118.51 46.8301 118.837 47.5088 119.237 48.1436C119.638 48.7686 120.111 49.3154 120.658 49.7842C121.205 50.2529 121.83 50.624 122.533 50.8975C123.246 51.1611 124.042 51.293 124.921 51.293C125.8 51.293 126.591 51.1611 127.294 50.8975C128.007 50.624 128.637 50.2529 129.184 49.7842C129.73 49.3154 130.199 48.7686 130.59 48.1436C130.99 47.5186 131.317 46.8447 131.571 46.1221C131.825 45.3994 132.011 44.6523 132.128 43.8809C132.255 43.0996 132.323 42.3281 132.333 41.5664ZM129.652 39.1055V41.5664C129.643 42.0742 129.608 42.6064 129.55 43.1631C129.501 43.7197 129.408 44.2666 129.271 44.8037C129.125 45.3506 128.935 45.873 128.7 46.3711C128.476 46.8594 128.192 47.2891 127.851 47.6602C127.499 48.041 127.079 48.3438 126.591 48.5684C126.112 48.793 125.556 48.9053 124.921 48.9053C124.286 48.9053 123.729 48.793 123.251 48.5684C122.772 48.3438 122.357 48.041 122.006 47.6602C121.654 47.2891 121.361 46.8545 121.127 46.3564C120.893 45.8584 120.702 45.3359 120.556 44.7891C120.409 44.252 120.302 43.7051 120.233 43.1484C120.175 42.5918 120.141 42.0645 120.131 41.5664V39.1055C120.141 38.6074 120.175 38.085 120.233 37.5381C120.302 36.9814 120.409 36.4297 120.556 35.8828C120.692 35.3457 120.878 34.833 121.112 34.3447C121.347 33.8467 121.64 33.4072 121.991 33.0264C122.343 32.6553 122.758 32.3574 123.236 32.1328C123.715 31.9082 124.267 31.7959 124.892 31.7959C125.526 31.7959 126.083 31.9082 126.562 32.1328C127.04 32.3477 127.455 32.6406 127.807 33.0117C128.158 33.3926 128.451 33.832 128.686 34.3301C128.92 34.8184 129.11 35.3311 129.257 35.8682C129.394 36.415 129.491 36.9668 129.55 37.5234C129.608 38.0703 129.643 38.5977 129.652 39.1055ZM149.867 29.6719H147.245L147.201 44.1152C147.182 44.75 147.079 45.3604 146.894 45.9463C146.708 46.5322 146.439 47.0498 146.088 47.499C145.727 47.958 145.282 48.3242 144.755 48.5977C144.228 48.8613 143.617 48.9932 142.924 48.9932C142.23 48.9932 141.615 48.8564 141.078 48.583C140.551 48.3096 140.111 47.9482 139.76 47.499C139.398 47.0498 139.12 46.5322 138.925 45.9463C138.739 45.3604 138.642 44.75 138.632 44.1152L138.573 29.6719H135.995L135.966 44.1152C135.976 45.1113 136.151 46.0488 136.493 46.9277C136.835 47.7969 137.309 48.5537 137.914 49.1982C138.52 49.8525 139.247 50.3652 140.097 50.7363C140.946 51.1074 141.889 51.293 142.924 51.293C143.939 51.293 144.872 51.1074 145.722 50.7363C146.571 50.3555 147.304 49.8379 147.919 49.1836C148.534 48.5391 149.018 47.7822 149.369 46.9131C149.721 46.0439 149.896 45.1113 149.896 44.1152L149.867 29.6719ZM167.855 51V29.6719H165.116L165.072 45.5801L156.796 29.6719H154.042V51H156.781L156.825 35.0625L165.102 51H167.855ZM186.898 31.9863V29.6719H171.078V31.9863H177.67V51H180.307V31.9863H186.898ZM207.567 45.5361C207.567 46.376 207.714 47.1523 208.007 47.8652C208.31 48.5684 208.734 49.1738 209.281 49.6816C209.828 50.1895 210.492 50.585 211.273 50.8682C212.055 51.1514 212.929 51.293 213.896 51.293C214.491 51.293 215.067 51.2295 215.624 51.1025C216.19 50.9756 216.732 50.79 217.25 50.5459C217.562 50.3994 217.865 50.2285 218.158 50.0332C218.461 49.8379 218.749 49.623 219.022 49.3887L220.238 51H223.476L220.824 47.5283C221.508 46.6689 222.025 45.707 222.377 44.6426C222.738 43.5684 222.919 42.4062 222.919 41.1562H220.473C220.463 42.0156 220.36 42.8164 220.165 43.5586C219.97 44.3008 219.701 44.9844 219.359 45.6094L214.862 39.7061L216.239 38.5342C216.669 38.2119 217.069 37.8848 217.44 37.5527C217.812 37.2207 218.134 36.8691 218.407 36.498C218.671 36.127 218.876 35.7314 219.022 35.3115C219.179 34.8818 219.257 34.4082 219.257 33.8906C219.257 33.2852 219.149 32.709 218.935 32.1621C218.72 31.6152 218.417 31.1318 218.026 30.7119C217.626 30.3018 217.143 29.9746 216.576 29.7305C216.01 29.4863 215.38 29.3643 214.687 29.3643C213.886 29.3643 213.163 29.4766 212.519 29.7012C211.874 29.9258 211.322 30.2529 210.863 30.6826C210.404 31.1221 210.048 31.6641 209.794 32.3086C209.55 32.9434 209.428 33.6758 209.428 34.5059C209.428 34.8965 209.467 35.2773 209.545 35.6484C209.633 36.0195 209.75 36.3857 209.896 36.7471C210.082 37.1865 210.316 37.6357 210.6 38.0947C210.883 38.5439 211.205 39.0127 211.566 39.501L211.039 39.8818C210.561 40.2432 210.121 40.6094 209.721 40.9805C209.33 41.3516 208.983 41.7422 208.681 42.1523C208.329 42.6406 208.056 43.1631 207.86 43.7197C207.665 44.2764 207.567 44.8818 207.567 45.5361ZM213.896 49.0957C213.3 49.0957 212.777 49.0029 212.328 48.8174C211.879 48.6318 211.503 48.3779 211.2 48.0557C210.897 47.7334 210.668 47.3574 210.512 46.9277C210.355 46.498 210.277 46.0342 210.277 45.5361C210.277 45.3506 210.302 45.1211 210.351 44.8477C210.409 44.5645 210.521 44.252 210.688 43.9102C210.844 43.5781 211.073 43.2217 211.376 42.8408C211.679 42.46 212.074 42.0693 212.562 41.6689L212.973 41.3174L217.704 47.6309C217.47 47.8262 217.226 48.0068 216.972 48.1729C216.728 48.3291 216.474 48.4658 216.21 48.583C215.849 48.749 215.473 48.876 215.082 48.9639C214.691 49.0518 214.296 49.0957 213.896 49.0957ZM212.152 34.4766C212.152 34.0859 212.206 33.7197 212.313 33.3779C212.421 33.0264 212.582 32.7188 212.797 32.4551C213.002 32.1914 213.261 31.9814 213.573 31.8252C213.896 31.6689 214.267 31.5908 214.687 31.5908C215.009 31.5908 215.297 31.6592 215.551 31.7959C215.805 31.9229 216.024 32.0889 216.21 32.2939C216.386 32.5088 216.518 32.7578 216.605 33.041C216.703 33.3145 216.752 33.5977 216.752 33.8906C216.752 34.1152 216.728 34.3447 216.679 34.5791C216.64 34.8135 216.566 35.043 216.459 35.2676C216.352 35.502 216.2 35.7314 216.005 35.9561C215.81 36.1807 215.561 36.3955 215.258 36.6006L213.544 37.9629C213.3 37.6113 213.085 37.2695 212.899 36.9375C212.714 36.6055 212.562 36.2783 212.445 35.9561C212.348 35.7119 212.274 35.4678 212.226 35.2236C212.177 34.9697 212.152 34.7207 212.152 34.4766ZM256.449 41.5811V39.2812H247.572V31.9863H257.929V29.6719H244.833V51H247.572V41.5811H256.449ZM265.663 48.7002V29.6719H262.953V51H276.093V48.7002H265.663ZM280.619 29.6719V32.0303H285.614V48.6562H280.619V51H293.51V48.6562H288.397V32.0303H293.51V29.6719H280.619ZM305.243 38.0361L300.702 29.6719H297.523L303.72 40.248L297.362 51H300.57L305.302 42.4746L310.019 51H313.183L306.84 40.248L313.036 29.6719H309.843L305.243 38.0361Z" fill="white"/>
</g>
<defs>
<filter id="filter0_d" x="89.4619" y="19.3643" width="233.721" height="41.9287" filterUnits="userSpaceOnUse" color-interpolation-filters="sRGB">
<feFlood flood-opacity="0" result="BackgroundImageFix"/>
<feColorMatrix in="SourceAlpha" type="matrix" values="0 0 0 0 0 0 0 0 0 0 0 0 0 0 0 0 0 0 127 0"/>
<feOffset/>
<feGaussianBlur stdDeviation="5"/>
<feColorMatrix type="matrix" values="0 0 0 0 0.898039 0 0 0 0 0.352941 0 0 0 0 0.270588 0 0 0 1 0"/>
<feBlend mode="normal" in2="BackgroundImageFix" result="effect1_dropShadow"/>
<feBlend mode="normal" in="SourceGraphic" in2="effect1_dropShadow" result="shape"/>
</filter>
</defs>
</svg>
