<svg width="182" height="182" viewBox="0 0 182 182" fill="none" xmlns="http://www.w3.org/2000/svg">
<path d="M90.9618 181.993C41.308 182.599 -0.314161 140.993 0.001787 90.7752C0.317736 40.9789 40.5374 0.161342 90.2023 0.000512224C140.976 -0.165864 181.794 40.2191 181.999 90.6753C182.198 142.091 139.945 182.586 90.9618 181.993Z" fill="#FE5740"/>
<path d="M27.1175 85.4863C26.2131 87.8943 26.8179 89.7864 26.768 91.6563C26.7458 92.6329 26.9622 93.8425 25.5417 94.0809C24.4708 94.2642 23.5554 93.9755 22.9839 92.8824C20.7866 88.6768 19.2165 84.238 19.7325 79.4717C20.2262 74.9663 23.0949 73.5238 27.2341 75.6987C40.2231 82.5179 52.3687 90.7685 64.9917 98.209C66.8725 99.3132 78.9119 105.156 80.5492 106.044C81.9382 106.797 82.5749 106.621 89.8323 103.347C104.547 96.7164 119.733 91.1458 134.72 85.109C136.051 84.5708 137.3 83.8274 138.875 83.0338C135.43 78.5617 132.095 74.1841 128.694 69.8672C128.084 69.0905 127.279 68.3359 126.397 67.9309C120.848 65.3951 115.183 63.0981 109.69 60.446C106.206 58.7647 105.701 60.4127 105.485 63.3256C105.368 64.9514 106.761 67.6257 103.703 67.8532C101.229 68.0363 99.592 66.1277 98.9762 63.9582C98.0107 60.5457 98.0163 56.956 99.2259 53.6046C100.435 50.2589 104.281 49.2435 108.664 50.9858C116.787 54.2094 124.86 57.5496 132.955 60.8344C141.899 64.4575 150.844 68.0862 159.799 71.6872C162.218 72.6637 163.944 73.718 163.511 77.0138C162.839 82.074 162.784 87.212 162.501 92.322C162.396 94.1642 161.874 95.7233 160.232 96.8052C159.516 97.277 158.595 97.8317 158.34 98.553C154.816 108.452 144.674 108.252 137.35 112.275C135.041 113.545 133.016 112.208 131.507 109.939C127.251 103.547 124.66 103.769 120.893 110.721C119.162 113.917 117.425 117.124 115.882 120.414C114.445 123.471 112.354 125.646 109.174 126.9C103.354 129.192 97.5835 131.617 91.813 134.019C90.3981 134.607 88.9833 134.918 87.5962 134.158C82.0533 131.128 76.4826 128.171 71.0506 124.903C63.7821 120.531 57.3236 115.415 53.4396 107.941C47.6969 96.8719 37.249 91.795 27.1175 85.4863Z" fill="#271640"/>
<path d="M116.614 108.263C117.447 114.366 114.118 117.634 107.97 119.959C102.816 121.912 97.9274 124.564 92.8838 126.817C89.0887 128.515 87.413 127.461 87.1468 123.36C87.1189 122.922 87.1357 122.484 87.13 122.045C86.9247 109.356 86.9358 109.378 98.7818 104.529C102.411 103.042 105.984 101.416 109.585 99.8625C114.823 97.6043 115.782 98.2757 116.199 104.002C116.428 107.153 116.387 106.599 116.614 108.263Z" fill="#39B5FD"/>
<path d="M133.715 99.0579C133.676 90.9349 134.886 88.9653 142.348 85.9357C146.465 84.2657 150.699 82.8673 154.899 81.3971C157.168 80.6036 158.228 81.5913 158.206 83.8884C158.173 86.8069 158.223 89.7364 158.023 92.6495C157.712 97.2936 153.967 98.9747 150.521 100.706C146.66 102.642 142.676 104.335 138.714 106.055C135.746 107.347 133.915 106.205 133.721 103.003C133.643 101.693 133.709 100.373 133.715 99.0579Z" fill="#FF0066"/>
</svg>
