<svg width="261" height="346" viewBox="0 0 261 346" fill="none" xmlns="http://www.w3.org/2000/svg">
<path d="M130.954 345.992C70.9327 346.724 20.6202 296.431 21.0022 235.728C21.3841 175.535 70.0013 126.195 130.036 126.001C191.41 125.8 240.751 174.616 240.999 235.608C241.24 297.758 190.164 346.708 130.954 345.992Z" fill="#FE5740"/>
<path d="M53.7794 229.335C52.6862 232.246 53.4172 234.533 53.357 236.793C53.3301 237.974 53.5917 239.436 51.8746 239.724C50.5801 239.946 49.4735 239.597 48.7827 238.275C46.1267 233.192 44.2287 227.826 44.8524 222.065C45.4493 216.619 48.9169 214.875 53.9204 217.504C69.6213 225.747 84.3028 235.72 99.5614 244.714C101.835 246.049 116.388 253.112 118.367 254.185C120.046 255.095 120.816 254.882 129.589 250.925C147.375 242.91 165.732 236.176 183.848 228.879C185.457 228.228 186.967 227.33 188.871 226.371C184.706 220.965 180.676 215.673 176.564 210.455C175.826 209.516 174.854 208.604 173.787 208.114C167.08 205.049 160.233 202.272 153.593 199.067C149.381 197.034 148.77 199.026 148.509 202.547C148.368 204.513 150.051 207.745 146.356 208.02C143.365 208.242 141.386 205.935 140.642 203.312C139.474 199.187 139.481 194.848 140.943 190.797C142.405 186.752 147.053 185.525 152.352 187.631C162.171 191.528 171.93 195.565 181.715 199.536C192.527 203.916 203.338 208.302 214.164 212.655C217.088 213.835 219.174 215.11 218.65 219.094C217.839 225.21 217.772 231.421 217.43 237.598C217.302 239.825 216.672 241.709 214.687 243.017C213.821 243.588 212.708 244.258 212.4 245.13C208.141 257.095 195.88 256.854 187.027 261.716C184.237 263.252 181.789 261.636 179.965 258.893C174.82 251.166 171.688 251.434 167.134 259.839C165.041 263.702 162.942 267.578 161.078 271.555C159.341 275.251 156.812 277.88 152.969 279.396C145.933 282.166 138.958 285.097 131.983 288.001C130.272 288.712 128.562 289.088 126.886 288.169C120.185 284.507 113.451 280.932 106.885 276.982C98.0992 271.697 90.2923 265.513 85.5973 256.478C78.6556 243.098 66.0263 236.961 53.7794 229.335Z" fill="#271640"/>
<path d="M161.962 256.867C162.968 264.245 158.945 268.195 151.514 271.006C145.283 273.366 139.374 276.572 133.277 279.295C128.69 281.348 126.664 280.073 126.342 275.117C126.309 274.587 126.329 274.057 126.322 273.527C126.074 258.189 126.087 258.215 140.407 252.353C144.793 250.556 149.112 248.591 153.465 246.713C159.797 243.983 160.956 244.795 161.46 251.716C161.737 255.526 161.688 254.855 161.962 256.867Z" fill="#39B5FD"/>
<path d="M182.633 245.74C182.586 235.921 184.048 233.54 193.069 229.878C198.046 227.86 203.163 226.169 208.241 224.392C210.984 223.433 212.265 224.627 212.238 227.404C212.198 230.931 212.258 234.473 212.017 237.994C211.641 243.608 207.114 245.64 202.949 247.732C198.281 250.073 193.465 252.119 188.676 254.198C185.088 255.761 182.875 254.379 182.64 250.509C182.546 248.926 182.627 247.33 182.633 245.74Z" fill="#FF0066"/>
<g filter="url(#filter0_d)">
<path d="M55.7812 39.7344H51.4453C51.3047 40.7656 51.0625 41.7266 50.7188 42.6172C50.375 43.4922 49.9141 44.25 49.3359 44.8906C48.7578 45.5469 48.0469 46.0547 47.2031 46.4141C46.375 46.7734 45.3906 46.9531 44.25 46.9531C43.2031 46.9531 42.2891 46.7891 41.5078 46.4609C40.7266 46.1172 40.0469 45.6484 39.4688 45.0547C38.8906 44.4766 38.4141 43.8047 38.0391 43.0391C37.6641 42.2734 37.3594 41.4531 37.125 40.5781C36.8906 39.7188 36.7188 38.8438 36.6094 37.9531C36.5156 37.0469 36.4688 36.1719 36.4688 35.3281V30.5234C36.4688 29.6797 36.5156 28.8125 36.6094 27.9219C36.7188 27.0156 36.8906 26.1328 37.125 25.2734C37.3594 24.4141 37.6641 23.6016 38.0391 22.8359C38.4297 22.0703 38.9141 21.3984 39.4922 20.8203C40.0547 20.2422 40.7266 19.7891 41.5078 19.4609C42.3047 19.1172 43.2188 18.9453 44.25 18.9453C45.3906 18.9453 46.375 19.1406 47.2031 19.5312C48.0469 19.9062 48.7578 20.4297 49.3359 21.1016C49.9141 21.7734 50.375 22.5547 50.7188 23.4453C51.0625 24.3359 51.3047 25.2969 51.4453 26.3281H55.7812C55.5938 24.7031 55.2031 23.2188 54.6094 21.875C54.0312 20.5312 53.2578 19.375 52.2891 18.4062C51.3203 17.4531 50.1641 16.7188 48.8203 16.2031C47.4766 15.6719 45.9531 15.4062 44.25 15.4062C42.8281 15.4062 41.5469 15.6094 40.4062 16.0156C39.2656 16.4062 38.25 16.9531 37.3594 17.6562C36.4531 18.3594 35.6719 19.1953 35.0156 20.1641C34.375 21.1172 33.8438 22.1562 33.4219 23.2812C32.9844 24.4062 32.6562 25.5859 32.4375 26.8203C32.2344 28.0547 32.125 29.3047 32.1094 30.5703V35.3281C32.125 36.5938 32.2344 37.8438 32.4375 39.0781C32.6562 40.3125 32.9844 41.4922 33.4219 42.6172C33.8438 43.7422 34.375 44.7812 35.0156 45.7344C35.6719 46.6875 36.4531 47.5156 37.3594 48.2188C38.25 48.9219 39.2656 49.4766 40.4062 49.8828C41.5625 50.2734 42.8438 50.4688 44.25 50.4688C45.8906 50.4688 47.375 50.2109 48.7031 49.6953C50.0469 49.1641 51.2109 48.4219 52.1953 47.4688C53.1641 46.5312 53.9531 45.4062 54.5625 44.0938C55.1719 42.7656 55.5781 41.3125 55.7812 39.7344ZM84.7031 34.9062V31.0156C84.6875 29.7969 84.5781 28.5625 84.375 27.3125C84.1875 26.0625 83.8906 24.8594 83.4844 23.7031C83.0625 22.5469 82.5312 21.4688 81.8906 20.4688C81.2656 19.4531 80.5156 18.5703 79.6406 17.8203C78.7656 17.0703 77.7578 16.4844 76.6172 16.0625C75.4766 15.625 74.2031 15.4062 72.7969 15.4062C71.3906 15.4062 70.1172 15.625 68.9766 16.0625C67.8516 16.4844 66.8516 17.0703 65.9766 17.8203C65.1016 18.5859 64.3438 19.4766 63.7031 20.4922C63.0781 21.4922 62.5625 22.5703 62.1562 23.7266C61.7344 24.8828 61.4219 26.0859 61.2188 27.3359C61.0312 28.5703 60.9297 29.7969 60.9141 31.0156V34.9062C60.9297 36.125 61.0391 37.3516 61.2422 38.5859C61.4453 39.8203 61.7578 41.0156 62.1797 42.1719C62.5859 43.3281 63.1094 44.4141 63.75 45.4297C64.3906 46.4297 65.1484 47.3047 66.0234 48.0547C66.8984 48.8047 67.8984 49.3984 69.0234 49.8359C70.1641 50.2578 71.4375 50.4688 72.8438 50.4688C74.25 50.4688 75.5156 50.2578 76.6406 49.8359C77.7812 49.3984 78.7891 48.8047 79.6641 48.0547C80.5391 47.3047 81.2891 46.4297 81.9141 45.4297C82.5547 44.4297 83.0781 43.3516 83.4844 42.1953C83.8906 41.0391 84.1875 39.8438 84.375 38.6094C84.5781 37.3594 84.6875 36.125 84.7031 34.9062ZM80.4141 30.9688V34.9062C80.3984 35.7188 80.3438 36.5703 80.25 37.4609C80.1719 38.3516 80.0234 39.2266 79.8047 40.0859C79.5703 40.9609 79.2656 41.7969 78.8906 42.5938C78.5312 43.375 78.0781 44.0625 77.5312 44.6562C76.9688 45.2656 76.2969 45.75 75.5156 46.1094C74.75 46.4688 73.8594 46.6484 72.8438 46.6484C71.8281 46.6484 70.9375 46.4688 70.1719 46.1094C69.4062 45.75 68.7422 45.2656 68.1797 44.6562C67.6172 44.0625 67.1484 43.3672 66.7734 42.5703C66.3984 41.7734 66.0938 40.9375 65.8594 40.0625C65.625 39.2031 65.4531 38.3281 65.3438 37.4375C65.25 36.5469 65.1953 35.7031 65.1797 34.9062V30.9688C65.1953 30.1719 65.25 29.3359 65.3438 28.4609C65.4531 27.5703 65.625 26.6875 65.8594 25.8125C66.0781 24.9531 66.375 24.1328 66.75 23.3516C67.125 22.5547 67.5938 21.8516 68.1562 21.2422C68.7188 20.6484 69.3828 20.1719 70.1484 19.8125C70.9141 19.4531 71.7969 19.2734 72.7969 19.2734C73.8125 19.2734 74.7031 19.4531 75.4688 19.8125C76.2344 20.1562 76.8984 20.625 77.4609 21.2188C78.0234 21.8281 78.4922 22.5312 78.8672 23.3281C79.2422 24.1094 79.5469 24.9297 79.7812 25.7891C80 26.6641 80.1562 27.5469 80.25 28.4375C80.3438 29.3125 80.3984 30.1562 80.4141 30.9688ZM112.758 15.875H108.562L108.492 38.9844C108.461 40 108.297 40.9766 108 41.9141C107.703 42.8516 107.273 43.6797 106.711 44.3984C106.133 45.1328 105.422 45.7188 104.578 46.1562C103.734 46.5781 102.758 46.7891 101.648 46.7891C100.539 46.7891 99.5547 46.5703 98.6953 46.1328C97.8516 45.6953 97.1484 45.1172 96.5859 44.3984C96.0078 43.6797 95.5625 42.8516 95.25 41.9141C94.9531 40.9766 94.7969 40 94.7812 38.9844L94.6875 15.875H90.5625L90.5156 38.9844C90.5312 40.5781 90.8125 42.0781 91.3594 43.4844C91.9062 44.875 92.6641 46.0859 93.6328 47.1172C94.6016 48.1641 95.7656 48.9844 97.125 49.5781C98.4844 50.1719 99.9922 50.4688 101.648 50.4688C103.273 50.4688 104.766 50.1719 106.125 49.5781C107.484 48.9688 108.656 48.1406 109.641 47.0938C110.625 46.0625 111.398 44.8516 111.961 43.4609C112.523 42.0703 112.805 40.5781 112.805 38.9844L112.758 15.875ZM141.539 50V15.875H137.156L137.086 41.3281L123.844 15.875H119.438V50H123.82L123.891 24.5L137.133 50H141.539ZM172.008 19.5781V15.875H146.695V19.5781H157.242V50H161.461V19.5781H172.008ZM205.078 41.2578C205.078 42.6016 205.312 43.8438 205.781 44.9844C206.266 46.1094 206.945 47.0781 207.82 47.8906C208.695 48.7031 209.758 49.3359 211.008 49.7891C212.258 50.2422 213.656 50.4688 215.203 50.4688C216.156 50.4688 217.078 50.3672 217.969 50.1641C218.875 49.9609 219.742 49.6641 220.57 49.2734C221.07 49.0391 221.555 48.7656 222.023 48.4531C222.508 48.1406 222.969 47.7969 223.406 47.4219L225.352 50H230.531L226.289 44.4453C227.383 43.0703 228.211 41.5312 228.773 39.8281C229.352 38.1094 229.641 36.25 229.641 34.25H225.727C225.711 35.625 225.547 36.9062 225.234 38.0938C224.922 39.2812 224.492 40.375 223.945 41.375L216.75 31.9297L218.953 30.0547C219.641 29.5391 220.281 29.0156 220.875 28.4844C221.469 27.9531 221.984 27.3906 222.422 26.7969C222.844 26.2031 223.172 25.5703 223.406 24.8984C223.656 24.2109 223.781 23.4531 223.781 22.625C223.781 21.6562 223.609 20.7344 223.266 19.8594C222.922 18.9844 222.438 18.2109 221.812 17.5391C221.172 16.8828 220.398 16.3594 219.492 15.9688C218.586 15.5781 217.578 15.3828 216.469 15.3828C215.188 15.3828 214.031 15.5625 213 15.9219C211.969 16.2812 211.086 16.8047 210.352 17.4922C209.617 18.1953 209.047 19.0625 208.641 20.0938C208.25 21.1094 208.055 22.2812 208.055 23.6094C208.055 24.2344 208.117 24.8438 208.242 25.4375C208.383 26.0312 208.57 26.6172 208.805 27.1953C209.102 27.8984 209.477 28.6172 209.93 29.3516C210.383 30.0703 210.898 30.8203 211.477 31.6016L210.633 32.2109C209.867 32.7891 209.164 33.375 208.523 33.9688C207.898 34.5625 207.344 35.1875 206.859 35.8438C206.297 36.625 205.859 37.4609 205.547 38.3516C205.234 39.2422 205.078 40.2109 205.078 41.2578ZM215.203 46.9531C214.25 46.9531 213.414 46.8047 212.695 46.5078C211.977 46.2109 211.375 45.8047 210.891 45.2891C210.406 44.7734 210.039 44.1719 209.789 43.4844C209.539 42.7969 209.414 42.0547 209.414 41.2578C209.414 40.9609 209.453 40.5938 209.531 40.1562C209.625 39.7031 209.805 39.2031 210.07 38.6562C210.32 38.125 210.688 37.5547 211.172 36.9453C211.656 36.3359 212.289 35.7109 213.07 35.0703L213.727 34.5078L221.297 44.6094C220.922 44.9219 220.531 45.2109 220.125 45.4766C219.734 45.7266 219.328 45.9453 218.906 46.1328C218.328 46.3984 217.727 46.6016 217.102 46.7422C216.477 46.8828 215.844 46.9531 215.203 46.9531ZM212.414 23.5625C212.414 22.9375 212.5 22.3516 212.672 21.8047C212.844 21.2422 213.102 20.75 213.445 20.3281C213.773 19.9062 214.188 19.5703 214.688 19.3203C215.203 19.0703 215.797 18.9453 216.469 18.9453C216.984 18.9453 217.445 19.0547 217.852 19.2734C218.258 19.4766 218.609 19.7422 218.906 20.0703C219.188 20.4141 219.398 20.8125 219.539 21.2656C219.695 21.7031 219.773 22.1562 219.773 22.625C219.773 22.9844 219.734 23.3516 219.656 23.7266C219.594 24.1016 219.477 24.4688 219.305 24.8281C219.133 25.2031 218.891 25.5703 218.578 25.9297C218.266 26.2891 217.867 26.6328 217.383 26.9609L214.641 29.1406C214.25 28.5781 213.906 28.0312 213.609 27.5C213.312 26.9688 213.07 26.4453 212.883 25.9297C212.727 25.5391 212.609 25.1484 212.531 24.7578C212.453 24.3516 212.414 23.9531 212.414 23.5625ZM95.9062 97.9297V94.25H81.7031V82.5781H98.2734V78.875H77.3203V113H81.7031V97.9297H95.9062ZM110.648 109.32V78.875H106.312V113H127.336V109.32H110.648ZM134.578 78.875V82.6484H142.57V109.25H134.578V113H155.203V109.25H147.023V82.6484H155.203V78.875H134.578ZM173.977 92.2578L166.711 78.875H161.625L171.539 95.7969L161.367 113H166.5L174.07 99.3594L181.617 113H186.68L176.531 95.7969L186.445 78.875H181.336L173.977 92.2578Z" fill="white"/>
</g>
<defs>
<filter id="filter0_d" x="22.1094" y="5.38281" width="218.422" height="117.617" filterUnits="userSpaceOnUse" color-interpolation-filters="sRGB">
<feFlood flood-opacity="0" result="BackgroundImageFix"/>
<feColorMatrix in="SourceAlpha" type="matrix" values="0 0 0 0 0 0 0 0 0 0 0 0 0 0 0 0 0 0 127 0"/>
<feOffset/>
<feGaussianBlur stdDeviation="5"/>
<feColorMatrix type="matrix" values="0 0 0 0 0.898039 0 0 0 0 0.352941 0 0 0 0 0.270588 0 0 0 1 0"/>
<feBlend mode="normal" in2="BackgroundImageFix" result="effect1_dropShadow"/>
<feBlend mode="normal" in="SourceGraphic" in2="effect1_dropShadow" result="shape"/>
</filter>
</defs>
</svg>
