<svg width="61" height="61" viewBox="0 0 61 61" fill="none" xmlns="http://www.w3.org/2000/svg">
<path d="M61 30.5C61 23.8785 58.8452 17.4369 54.8611 12.1482C50.8769 6.85948 45.2799 3.01096 38.9155 1.18398C32.5511 -0.643006 25.765 -0.349201 19.5823 2.02101C13.3995 4.39122 8.1561 8.70909 4.64398 14.3224C1.13186 19.9356 -0.458153 26.5394 0.114129 33.1361C0.68641 39.7327 3.3899 45.964 7.81621 50.8886C12.2425 55.8132 18.1512 59.1636 24.6497 60.4337C31.1482 61.7037 37.8836 60.8245 43.8383 57.9288L38.0173 45.9587C34.6613 47.5906 30.8653 48.0862 27.2028 47.3704C23.5403 46.6546 20.2102 44.7663 17.7156 41.9909C15.221 39.2154 13.6973 35.7035 13.3748 31.9857C13.0522 28.2678 13.9484 24.546 15.9278 21.3824C17.9072 18.2188 20.8623 15.7853 24.3469 14.4495C27.8314 13.1137 31.656 12.9481 35.2429 13.9777C38.8298 15.0074 41.9843 17.1764 44.2297 20.1571C46.4751 23.1378 47.6895 26.7682 47.6895 30.5L61 30.5Z" fill="#FF5040"/>
</svg>